<mxfile host="app.diagrams.net" modified="2022-01-14T02:35:21.632Z" agent="5.0 (Macintosh; Intel Mac OS X 10_15_7) AppleWebKit/537.36 (KHTML, like Gecko) Chrome/97.0.4692.71 Safari/537.36" etag="1J4ZpPfoYGu7P7tPTLxK" version="16.2.6" type="github" pages="3">
  <diagram id="C5RBs43oDa-KdzZeNtuy" name="Auth">
    <mxGraphModel dx="1347" dy="913" grid="1" gridSize="10" guides="1" tooltips="1" connect="1" arrows="1" fold="1" page="1" pageScale="1" pageWidth="1169" pageHeight="827" math="0" shadow="0">
      <root>
        <mxCell id="WIyWlLk6GJQsqaUBKTNV-0" />
        <mxCell id="WIyWlLk6GJQsqaUBKTNV-1" parent="WIyWlLk6GJQsqaUBKTNV-0" />
        <mxCell id="XzSn_rRKWrM8uNgigZ0G-0" value="&lt;font style=&quot;font-size: 25px&quot;&gt;&lt;b&gt;Authunetication and Authorisation Service&lt;/b&gt;&lt;/font&gt;" style="text;html=1;strokeColor=none;fillColor=none;align=center;verticalAlign=middle;whiteSpace=wrap;rounded=0;sketch=0;" vertex="1" parent="WIyWlLk6GJQsqaUBKTNV-1">
          <mxGeometry x="297" y="20" width="575" height="30" as="geometry" />
        </mxCell>
      </root>
    </mxGraphModel>
  </diagram>
  <diagram id="vT45UM7YWQrJgRwl2dxx" name="Products">
    <mxGraphModel dx="1683" dy="1142" grid="1" gridSize="10" guides="1" tooltips="1" connect="1" arrows="1" fold="1" page="1" pageScale="1" pageWidth="1169" pageHeight="827" math="0" shadow="0">
      <root>
        <mxCell id="NcW0uAfTotqKWrMHABvw-0" />
        <mxCell id="NcW0uAfTotqKWrMHABvw-1" parent="NcW0uAfTotqKWrMHABvw-0" />
        <mxCell id="kW2x1S1aM7OV3wr2bi0Z-0" value="&lt;font style=&quot;font-size: 25px&quot;&gt;&lt;b&gt;Products Service&lt;/b&gt;&lt;/font&gt;" style="text;html=1;strokeColor=none;fillColor=none;align=center;verticalAlign=middle;whiteSpace=wrap;rounded=0;sketch=0;" vertex="1" parent="NcW0uAfTotqKWrMHABvw-1">
          <mxGeometry x="297" y="20" width="575" height="30" as="geometry" />
        </mxCell>
      </root>
    </mxGraphModel>
  </diagram>
  <diagram id="AmHbDrZMR5xD92mB44Ig" name="End to End Overview">
    <mxGraphModel dx="2244" dy="1522" grid="1" gridSize="10" guides="1" tooltips="1" connect="1" arrows="1" fold="1" page="1" pageScale="1" pageWidth="1169" pageHeight="827" math="0" shadow="0">
      <root>
        <mxCell id="aoh54oxooWbk0Fr2ZpUX-0" />
        <mxCell id="aoh54oxooWbk0Fr2ZpUX-1" parent="aoh54oxooWbk0Fr2ZpUX-0" />
        <mxCell id="aoh54oxooWbk0Fr2ZpUX-2" value="ReactJs" style="whiteSpace=wrap;html=1;aspect=fixed;rounded=0;sketch=0;fontSize=25;" vertex="1" parent="aoh54oxooWbk0Fr2ZpUX-1">
          <mxGeometry x="90" y="240" width="110" height="110" as="geometry" />
        </mxCell>
        <mxCell id="aoh54oxooWbk0Fr2ZpUX-3" value="NextJs" style="whiteSpace=wrap;html=1;aspect=fixed;rounded=0;sketch=0;fontSize=25;" vertex="1" parent="aoh54oxooWbk0Fr2ZpUX-1">
          <mxGeometry x="90" y="385" width="110" height="110" as="geometry" />
        </mxCell>
        <mxCell id="aoh54oxooWbk0Fr2ZpUX-4" value="" style="rounded=1;whiteSpace=wrap;html=1;sketch=0;fontSize=25;rotation=90;" vertex="1" parent="aoh54oxooWbk0Fr2ZpUX-1">
          <mxGeometry x="80" y="410" width="505" height="60" as="geometry" />
        </mxCell>
        <mxCell id="aoh54oxooWbk0Fr2ZpUX-5" value="&lt;font style=&quot;font-size: 30px&quot;&gt;Common Library&lt;/font&gt;" style="text;html=1;strokeColor=none;fillColor=none;align=center;verticalAlign=middle;whiteSpace=wrap;rounded=0;sketch=0;fontSize=25;rotation=-90;" vertex="1" parent="aoh54oxooWbk0Fr2ZpUX-1">
          <mxGeometry x="182.5" y="425" width="300" height="30" as="geometry" />
        </mxCell>
        <mxCell id="aoh54oxooWbk0Fr2ZpUX-6" value="Auth Service" style="rounded=0;whiteSpace=wrap;html=1;sketch=0;fontSize=25;" vertex="1" parent="aoh54oxooWbk0Fr2ZpUX-1">
          <mxGeometry x="442" y="201" width="285" height="60" as="geometry" />
        </mxCell>
        <mxCell id="aoh54oxooWbk0Fr2ZpUX-8" value="Product Service" style="rounded=0;whiteSpace=wrap;html=1;sketch=0;fontSize=25;" vertex="1" parent="aoh54oxooWbk0Fr2ZpUX-1">
          <mxGeometry x="442" y="325" width="285" height="60" as="geometry" />
        </mxCell>
        <mxCell id="aoh54oxooWbk0Fr2ZpUX-9" value="AWS Lambda Function" style="ellipse;shape=cloud;whiteSpace=wrap;html=1;rounded=0;sketch=0;fontSize=25;" vertex="1" parent="aoh54oxooWbk0Fr2ZpUX-1">
          <mxGeometry x="242.5" y="60" width="240" height="90" as="geometry" />
        </mxCell>
        <mxCell id="aoh54oxooWbk0Fr2ZpUX-10" value="S3" style="shape=cylinder3;whiteSpace=wrap;html=1;boundedLbl=1;backgroundOutline=1;size=15;rounded=0;sketch=0;fontSize=25;" vertex="1" parent="aoh54oxooWbk0Fr2ZpUX-1">
          <mxGeometry x="540" y="10" width="60" height="80" as="geometry" />
        </mxCell>
        <mxCell id="aoh54oxooWbk0Fr2ZpUX-12" value="Others" style="whiteSpace=wrap;html=1;aspect=fixed;rounded=0;sketch=0;fontSize=25;" vertex="1" parent="aoh54oxooWbk0Fr2ZpUX-1">
          <mxGeometry x="90" y="530" width="110" height="110" as="geometry" />
        </mxCell>
        <mxCell id="aoh54oxooWbk0Fr2ZpUX-13" value="" style="endArrow=none;dashed=1;html=1;dashPattern=1 3;strokeWidth=2;rounded=1;sketch=0;fontSize=25;curved=0;entryX=0.455;entryY=1.069;entryDx=0;entryDy=0;entryPerimeter=0;" edge="1" parent="aoh54oxooWbk0Fr2ZpUX-1" target="aoh54oxooWbk0Fr2ZpUX-8">
          <mxGeometry width="50" height="50" relative="1" as="geometry">
            <mxPoint x="572" y="590" as="sourcePoint" />
            <mxPoint x="710" y="470" as="targetPoint" />
            <Array as="points">
              <mxPoint x="570" y="590" />
            </Array>
          </mxGeometry>
        </mxCell>
        <mxCell id="aoh54oxooWbk0Fr2ZpUX-15" value="Other Services" style="rounded=0;whiteSpace=wrap;html=1;sketch=0;fontSize=25;" vertex="1" parent="aoh54oxooWbk0Fr2ZpUX-1">
          <mxGeometry x="452" y="610" width="285" height="60" as="geometry" />
        </mxCell>
        <mxCell id="aoh54oxooWbk0Fr2ZpUX-17" value="" style="rounded=1;whiteSpace=wrap;html=1;sketch=0;fontSize=25;rotation=90;" vertex="1" parent="aoh54oxooWbk0Fr2ZpUX-1">
          <mxGeometry x="610" y="410" width="505" height="60" as="geometry" />
        </mxCell>
        <mxCell id="aoh54oxooWbk0Fr2ZpUX-18" value="&lt;font style=&quot;font-size: 30px&quot;&gt;Event Bus&lt;/font&gt;" style="text;html=1;strokeColor=none;fillColor=none;align=center;verticalAlign=middle;whiteSpace=wrap;rounded=0;sketch=0;fontSize=25;rotation=-90;" vertex="1" parent="aoh54oxooWbk0Fr2ZpUX-1">
          <mxGeometry x="712.5" y="425" width="300" height="30" as="geometry" />
        </mxCell>
      </root>
    </mxGraphModel>
  </diagram>
</mxfile>
